HIERARCHY
ROOT Hips
{
	OFFSET 0.000000 0.000000 0.000000
	CHANNELS 6 Xposition Yposition Zposition Zrotation Yrotation Xrotation 
	JOINT LHipJoint
	{
		OFFSET 0.000000 0.000000 0.000000
		CHANNELS 3 Zrotation Yrotation Xrotation
		JOINT LeftUpLeg
		{
			OFFSET 1.363060 -1.794630 0.839290
			CHANNELS 3 Zrotation Yrotation Xrotation
			JOINT LeftLeg
			{
				OFFSET 2.448110 -6.726130 0.000000
				CHANNELS 3 Zrotation Yrotation Xrotation
				JOINT LeftFoot
				{
					OFFSET 2.562200 -7.039590 0.000000
					CHANNELS 3 Zrotation Yrotation Xrotation
					JOINT LeftToeBase
					{
						OFFSET 0.157640 -0.433110 2.322550
						CHANNELS 3 Zrotation Yrotation Xrotation
						End Site
						{
							OFFSET 0.000000 0.000000 0.000000
						}
					}
				}
			}
		}
	}
	JOINT RHipJoint
	{
		OFFSET 0.000000 0.000000 0.000000
		CHANNELS 3 Zrotation Yrotation Xrotation
		JOINT RightUpLeg
		{
			OFFSET -1.305520 -1.794630 0.839290
			CHANNELS 3 Zrotation Yrotation Xrotation
			JOINT RightLeg
			{
				OFFSET -2.542530 -6.985550 0.000000
				CHANNELS 3 Zrotation Yrotation Xrotation
				JOINT RightFoot
				{
					OFFSET -2.568260 -7.056230 0.000000
					CHANNELS 3 Zrotation Yrotation Xrotation
					JOINT RightToeBase
					{
						OFFSET -0.164730 -0.452590 2.363150
						CHANNELS 3 Zrotation Yrotation Xrotation
						End Site
						{
							OFFSET 0.000000 0.000000 0.000000
						}
					}
				}
			}
		}
	}
}
MOTION
Frames: 11
Frame Time: 0.008333
-18.678159 16.245042 -1.747185 27.830180 82.841699 59.834076 -13.003406 3.544741 -2.130176 -6.190934 7.613482 -6.729179 -1.037365 1.140550 19.122487 1.259056 6.304637 20.117657 2.376700 0.000000 -97.564500 7.914212 1.577774 4.162236 -2.082336 8.409012 -65.606232 1.422156 -1.668056 27.325700 0.188360 0.990113 5.461721 -0.438501 0.000000 -35.342101
-18.513075 16.219870 -1.699290 22.012596 82.946391 54.240471 -12.991673 3.528839 -2.128653 -5.411905 7.661136 -6.840229 -0.951916 1.193539 19.712714 1.318217 6.010438 21.284597 2.288100 -0.000000 -97.388000 7.886980 1.642692 3.989509 -1.207514 8.990632 -66.377867 1.354603 -1.934133 30.112836 0.166728 1.137969 4.219869 -0.370800 -0.000000 -33.853900
-18.352514 16.201887 -1.651421 16.241510 83.115260 48.648149 -12.959319 3.484295 -2.154200 -4.558086 7.750026 -6.994610 -0.865168 1.249278 20.427889 1.380186 5.611528 22.541793 2.141700 -0.000000 -96.492500 7.867748 1.698902 3.810382 -0.341555 9.574361 -66.855588 1.306373 -2.148738 32.548832 0.109617 1.144792 2.716659 -0.343601 0.000000 -32.387300
-18.196481 16.190984 -1.602908 10.751887 83.359348 43.293144 -12.912930 3.410449 -2.197063 -3.664289 7.846058 -7.201596 -0.778179 1.304065 21.268785 1.446615 5.164841 23.828593 1.957100 -0.000000 -94.754399 7.854266 1.740061 3.626580 0.492169 10.109770 -67.055473 1.280040 -2.316842 34.615785 0.020780 1.025049 1.044949 -0.342500 -0.000000 -31.015699
-18.045296 16.186833 -1.553182 5.744897 83.687752 38.379743 -12.859908 3.310857 -2.246637 -2.773023 7.916897 -7.473927 -0.693046 1.355668 22.235023 1.518345 4.749467 25.062345 1.769800 -0.000000 -92.083399 7.843947 1.764928 3.440215 1.268524 10.554160 -67.008142 1.273406 -2.443824 36.316234 -0.094898 0.796349 -0.694214 -0.352800 -0.000000 -29.796300
-17.898379 16.189049 -1.501945 1.320582 84.106066 34.015926 -12.806382 3.191516 -2.294933 -1.921209 7.942704 -7.830420 -0.612933 1.404187 23.326446 1.595014 4.452461 26.149677 1.625900 0.000000 -88.485501 7.835424 1.777181 3.253110 1.969441 10.880722 -66.751983 1.281409 -2.534404 37.665480 -0.232109 0.473934 -2.400728 -0.363300 0.000000 -28.757700
-17.755609 16.197172 -1.449098 -2.485965 84.615031 30.247709 -12.755304 3.059710 -2.335963 -1.140236 7.914174 -8.291652 -0.540715 1.451275 24.541419 1.675392 4.361463 26.998841 1.577200 0.000000 -84.061100 7.829599 1.782350 3.068804 2.582158 11.077514 -66.331190 1.297412 -2.592967 38.688584 -0.385168 0.070913 -3.984929 -0.367900 -0.000000 -27.925200
-17.616611 16.210744 -1.394840 -5.688039 85.210470 27.073712 -12.707058 2.921915 -2.365940 -0.452824 7.831699 -8.877332 -0.477953 1.499279 25.875550 1.758095 4.549683 27.533273 1.669400 -0.000000 -79.003000 7.828538 1.784924 2.892459 3.100592 11.146541 -65.791311 1.314855 -2.623801 39.416898 -0.548270 -0.401045 -5.375624 -0.365300 -0.000000 -27.311600
-17.480911 16.229304 -1.339623 -8.382146 85.883698 24.411678 -12.659843 2.781898 -2.383360 0.130168 7.703102 -9.603282 -0.424411 1.550090 27.318697 1.842559 5.064273 27.702363 1.931000 -0.000000 -73.595000 7.834583 1.786598 2.730209 3.528200 11.102901 -65.176602 1.329262 -2.631304 39.884283 -0.716084 -0.930197 -6.529958 -0.357900 0.000000 -26.891700
-17.348019 16.252406 -1.283962 -10.663312 86.619500 22.178803 -12.611797 2.641544 -2.387975 0.601523 7.538947 -10.476928 -0.378558 1.604539 28.854314 1.929405 5.920140 27.484116 2.365300 -0.000000 -68.131800 7.848916 1.786593 2.588519 3.870850 10.968569 -64.526802 1.337762 -2.619674 40.126740 -0.883878 -1.502837 -7.432306 -0.350400 0.000000 -26.641000
-17.217867 16.279640 -1.228247 -12.056606 87.350599 20.860239 -12.580804 2.510694 -2.378516 0.938734 7.354556 -11.493624 -0.345355 1.667517 30.450431 2.022484 7.103864 26.889222 2.951000 0.000000 -62.916100 7.858672 1.795347 2.466018 4.127301 10.776156 -63.871917 1.336310 -2.585742 40.188742 -1.045739 -2.094862 -8.094634 -0.346700 0.000000 -26.513700
